<?xml version="1.0" encoding="UTF-8"?>
<svg version="1.1" xmlns="http://www.w3.org/2000/svg" width="128" height="138">
<path d="M0 0 C4.09298458 1.38919067 5.60443796 2.91502553 8.4296875 6.1640625 C9.54656507 7.2971267 10.67216267 8.421638 11.8046875 9.5390625 C15.34635417 13.08072917 18.88802083 16.62239583 22.4296875 20.1640625 C23.20957031 20.94322021 23.98945312 21.72237793 24.79296875 22.52514648 C27.04141083 24.77546226 29.28553229 27.02996384 31.52709961 29.28712463 C33.61155845 31.38510849 35.69881267 33.48030281 37.78613281 35.57543945 C38.88273147 36.67708781 39.97843386 37.77962905 41.07324219 38.88305664 C42.66883624 40.49083992 44.26769186 42.09531804 45.8671875 43.69921875 C46.3506665 44.18785904 46.83414551 44.67649933 47.33227539 45.1799469 C49.52387858 47.37190685 51.7203241 49.39135589 54.1640625 51.30249023 C56.93339898 53.57794182 58.02230189 55.90485372 59.4296875 59.1640625 C57.1196875 61.4740625 54.8096875 63.7840625 52.4296875 66.1640625 C52.94660156 66.70675781 53.46351562 67.24945313 53.99609375 67.80859375 C54.98416016 68.88173828 54.98416016 68.88173828 55.9921875 69.9765625 C56.65347656 70.68425781 57.31476563 71.39195313 57.99609375 72.12109375 C58.46917969 72.79527344 58.94226563 73.46945313 59.4296875 74.1640625 C58.30532496 77.53715011 57.35626017 78.31529347 54.6796875 80.5390625 C51.44006331 83.29044545 48.4002632 86.1192224 45.4296875 89.1640625 C44.09771959 90.49875986 42.76426519 91.83197469 41.4296875 93.1640625 C40.7903125 93.8034375 40.1509375 94.4428125 39.4921875 95.1015625 C38.07307773 96.52067227 36.6516369 97.93745359 35.22827148 99.35229492 C32.6106475 101.98225003 30.02346767 104.63815558 27.44313049 107.30451965 C24.82803596 110.00009719 22.19676966 112.67965268 19.56469727 115.35864258 C18.17941497 116.77427739 16.79954045 118.19522369 15.42504883 119.62133789 C13.43150532 121.68759857 11.41924906 123.73391325 9.40234375 125.77734375 C8.79278336 126.41787186 8.18322296 127.05839996 7.55519104 127.71833801 C6.97116013 128.30282211 6.38712921 128.88730621 5.78540039 129.48950195 C5.02858727 130.26630058 5.02858727 130.26630058 4.25648499 131.05879211 C1.45286013 132.75507402 -0.35333636 132.6466144 -3.5703125 132.1640625 C-6.29046631 130.15870667 -6.29046631 130.15870667 -9.08496094 127.31469727 C-9.59956375 126.79936432 -10.11416656 126.28403137 -10.6443634 125.75308228 C-12.3372924 124.05089548 -14.00808958 122.32858589 -15.6796875 120.60546875 C-16.85320421 119.41821604 -18.02813199 118.23235654 -19.20440674 117.0478363 C-22.29440011 113.92929463 -25.36638551 110.79360594 -28.43450928 107.65356445 C-32.16982903 103.83663999 -35.92430746 100.03858029 -39.67770767 96.23944759 C-42.5966759 93.2846842 -45.51202798 90.32664593 -48.41693115 87.35804749 C-48.95092026 86.81410843 -49.48490936 86.27016937 -50.03507996 85.70974731 C-51.47766729 84.24018437 -52.91796233 82.76837221 -54.35809326 81.29640198 C-56.38060137 79.1344453 -56.38060137 79.1344453 -58.5703125 78.1640625 C-58.5703125 75.8540625 -58.5703125 73.5440625 -58.5703125 71.1640625 C-57.0853125 70.6690625 -57.0853125 70.6690625 -55.5703125 70.1640625 C-55.5703125 69.5040625 -55.5703125 68.8440625 -55.5703125 68.1640625 C-54.5803125 67.1740625 -54.5803125 67.1740625 -53.5703125 66.1640625 C-56.5403125 62.6990625 -56.5403125 62.6990625 -59.5703125 59.1640625 C-58.27833316 55.41800867 -56.83629394 53.06011449 -54.02612305 50.27929688 C-53.30164474 49.55504517 -52.57716644 48.83079346 -51.83073425 48.08459473 C-50.65575127 46.93283752 -50.65575127 46.93283752 -49.45703125 45.7578125 C-48.24718315 44.55433167 -48.24718315 44.55433167 -47.01289368 43.32653809 C-44.43483095 40.76524404 -41.84654919 38.21456332 -39.2578125 35.6640625 C-37.52600474 33.94730831 -35.79487702 32.22986782 -34.06445312 30.51171875 C-30.88139564 27.35314204 -27.69451163 24.19854326 -24.50268555 21.04882812 C-18.47776245 15.15299324 -18.47776245 15.15299324 -12.703125 9.015625 C-11.70071073 7.93992718 -10.69810464 6.86440807 -9.6953125 5.7890625 C-9.20417969 5.23089844 -8.71304688 4.67273438 -8.20703125 4.09765625 C-5.44850645 1.19583146 -4.05096957 0.18614959 0 0 Z M-5.65283203 8.98779297 C-6.49355255 9.82220917 -7.33427307 10.65662537 -8.20046997 11.5163269 C-9.10884613 12.42875153 -10.01722229 13.34117615 -10.953125 14.28125 C-11.88252899 15.20874054 -12.81193298 16.13623108 -13.76950073 17.09182739 C-15.7381161 19.05749056 -17.70305917 21.02673532 -19.66552734 22.99853516 C-22.18535912 25.52976152 -24.71406141 28.05190485 -27.24557686 30.57143974 C-29.65295425 32.96986568 -32.0526964 35.37586922 -34.453125 37.78125 C-35.36554962 38.68962616 -36.27797424 39.59800232 -37.2180481 40.53390503 C-38.46967239 41.79498581 -38.46967239 41.79498581 -39.74658203 43.08154297 C-40.48667511 43.82322723 -41.22676819 44.5649115 -41.98928833 45.32907104 C-43.78789074 47.01289898 -43.78789074 47.01289898 -43.5703125 49.1640625 C-44.1065625 49.3703125 -44.6428125 49.5765625 -45.1953125 49.7890625 C-48.5720779 51.74403194 -50.87506089 54.34629945 -53.5703125 57.1640625 C-51.98668168 61.00011739 -49.54417128 63.44851899 -46.6328125 66.3671875 C-46.15207275 66.8498407 -45.67133301 67.3324939 -45.17602539 67.82977295 C-44.16310157 68.84405314 -43.14766612 69.85583054 -42.12988281 70.86523438 C-40.56858085 72.41578222 -39.01828753 73.97676753 -37.46875 75.5390625 C-36.48241189 76.52407984 -35.495454 77.50847703 -34.5078125 78.4921875 C-33.60933594 79.3884082 -32.71085937 80.28462891 -31.78515625 81.20800781 C-29.81295658 83.38471597 -29.81295658 83.38471597 -27.5703125 83.1640625 C-27.35262207 83.70772461 -27.13493164 84.25138672 -26.91064453 84.81152344 C-25.11944472 87.95542168 -22.68754669 90.29353917 -20.125 92.8046875 C-19.59512482 93.33173279 -19.06524963 93.85877808 -18.51931763 94.40179443 C-16.83263425 96.07731925 -15.13911686 97.74573972 -13.4453125 99.4140625 C-12.29771862 100.55162101 -11.15057789 101.68963686 -10.00390625 102.828125 C-7.19793113 105.61209715 -4.38580786 108.3897201 -1.5703125 111.1640625 C2.312377 109.57994344 4.94833115 106.93540612 7.8515625 104.0078125 C8.35641174 103.50487671 8.86126099 103.00194092 9.38140869 102.48376465 C10.44276747 101.42376264 11.50162169 100.36124762 12.55810547 99.29638672 C14.18107874 97.66266204 15.81449818 96.03992956 17.44921875 94.41796875 C18.47980896 93.38605774 19.50977902 92.35352691 20.5390625 91.3203125 C21.02961121 90.83381226 21.52015991 90.34731201 22.02557373 89.84606934 C24.6736413 87.45329569 24.6736413 87.45329569 25.4296875 84.1640625 C26.4196875 83.8340625 27.4096875 83.5040625 28.4296875 83.1640625 C28.4296875 82.5040625 28.4296875 81.8440625 28.4296875 81.1640625 C28.99139648 80.9283252 29.55310547 80.69258789 30.13183594 80.44970703 C32.97303786 78.86005878 34.90776035 76.91062974 37.1953125 74.59375 C38.08476563 73.69785156 38.97421875 72.80195312 39.890625 71.87890625 C40.81101562 70.94175781 41.73140625 70.00460938 42.6796875 69.0390625 C43.62453606 68.08417613 44.56984383 67.12974391 45.515625 66.17578125 C47.82487088 63.84297163 50.12931953 61.50562164 52.4296875 59.1640625 C50.68368089 55.39043531 48.53128171 52.96306216 45.4296875 50.1640625 C43.9446875 49.6690625 43.9446875 49.6690625 42.4296875 49.1640625 C41.73346982 47.84591867 41.07092213 46.5098115 40.4296875 45.1640625 C39.26974572 43.82373072 38.05589098 42.52900274 36.8046875 41.2734375 C36.09828125 40.56445312 35.391875 39.85546875 34.6640625 39.125 C33.92671875 38.39539062 33.189375 37.66578125 32.4296875 36.9140625 C31.69234375 36.16898438 30.955 35.42390625 30.1953125 34.65625 C29.48890625 33.95242187 28.7825 33.24859375 28.0546875 32.5234375 C27.40757813 31.87858398 26.76046875 31.23373047 26.09375 30.56933594 C24.53802394 28.94899641 24.53802394 28.94899641 22.4296875 29.1640625 C22.0275 28.266875 22.0275 28.266875 21.6171875 27.3515625 C20.43051344 25.16558396 19.33369637 23.75073656 17.4296875 22.1640625 C16.7696875 22.1640625 16.1096875 22.1640625 15.4296875 22.1640625 C15.213125 21.62265625 14.9965625 21.08125 14.7734375 20.5234375 C12.96468753 17.34760906 10.51244951 14.95678169 7.9296875 12.4140625 C7.43082031 11.90746094 6.93195313 11.40085937 6.41796875 10.87890625 C3.89907113 8.03600651 3.89907113 8.03600651 0.4296875 7.1640625 C0.4296875 6.5040625 0.4296875 5.8440625 0.4296875 5.1640625 C-2.60342823 5.1640625 -3.53528019 6.87478406 -5.65283203 8.98779297 Z " fill="#96DCF3" transform="translate(64.5703125,4.8359375)"/>
<path d="M0 0 C3.88146462 1.3140375 6.18819881 2.84763705 9 5.8125 C9.639375 6.47894531 10.27875 7.14539063 10.9375 7.83203125 C11.9584375 8.90517578 11.9584375 8.90517578 13 10 C14.66265867 11.67066505 16.32952382 13.33715157 18 15 C21.33333333 18.33333333 24.66666667 21.66666667 28 25 C28.76183594 25.72058594 29.52367188 26.44117187 30.30859375 27.18359375 C32 29 32 29 32 31 C32.61875 31.2475 33.2375 31.495 33.875 31.75 C36.40358627 33.23740369 36.71839004 34.43678009 38 37 C38.66 37.309375 39.32 37.61875 40 37.9375 C42.74986668 39.39836667 43.08833304 41.11305462 44 44 C43.51327316 44.4132251 43.02654633 44.8264502 42.52507019 45.25219727 C37.48405237 49.58920664 32.7918875 54.15487593 28.17578125 58.9375 C26.72145076 60.42390895 25.26635058 61.90956515 23.81054688 63.39453125 C21.54514576 65.70959379 19.28476652 68.02877188 17.03686523 70.36083984 C14.84677967 72.62932038 12.6383201 74.87844296 10.42578125 77.125 C9.7548494 77.83003662 9.08391754 78.53507324 8.39265442 79.26147461 C3.73575 83.94539539 3.73575 83.94539539 0.32885742 84.19824219 C-2.54535982 82.71940183 -4.42937563 81.02190147 -6.6875 78.703125 C-7.55117188 77.8265625 -8.41484375 76.95 -9.3046875 76.046875 C-10.19414063 75.12390625 -11.08359375 74.2009375 -12 73.25 C-12.88945313 72.3425 -13.77890625 71.435 -14.6953125 70.5 C-16.36010167 68.80042419 -18.02073986 67.09676491 -19.67578125 65.38769531 C-23.24240709 61.72366162 -26.84636742 58.11257176 -30.5859375 54.625 C-31.84918552 53.41690418 -33.1122026 52.20856684 -34.375 51 C-35.02855469 50.39671875 -35.68210937 49.7934375 -36.35546875 49.171875 C-40.96569772 44.7072322 -40.96569772 44.7072322 -41.1328125 41.26171875 C-39.87470421 38.74984048 -38.72323707 37.5118185 -36.5 35.8125 C-33.80490429 33.77978012 -33.80490429 33.77978012 -32 31 C-31.34 31 -30.68 31 -30 31 C-29.67 30.01 -29.34 29.02 -29 28 C-27.36328125 26.421875 -27.36328125 26.421875 -25.3125 24.75 C-21.974408 21.92454355 -19.1473788 18.98692912 -16.36328125 15.625 C-12.67626814 11.23016489 -8.40000381 7.65106699 -4 4 C-2.64900897 2.68456137 -1.30794331 1.35824882 0 0 Z M-1.5078125 25.2421875 C-2.04148437 25.78101562 -2.57515625 26.31984375 -3.125 26.875 C-3.93324219 27.67550781 -3.93324219 27.67550781 -4.7578125 28.4921875 C-6.21194914 29.93167265 -6.21194914 29.93167265 -6 32 C-6.57234375 32.24492188 -7.1446875 32.48984375 -7.734375 32.7421875 C-10.38024402 34.21110099 -12.14853139 35.95348244 -14.25 38.125 C-14.95640625 38.84945312 -15.6628125 39.57390625 -16.390625 40.3203125 C-16.92171875 40.87460937 -17.4528125 41.42890625 -18 42 C-12.44964797 48.78376359 -6.23557973 54.85522968 0 61 C3.2586636 59.5735422 5.4024854 57.83295838 7.890625 55.3046875 C8.59960938 54.58925781 9.30859375 53.87382813 10.0390625 53.13671875 C10.76867187 52.39035156 11.49828125 51.64398438 12.25 50.875 C12.99507812 50.12089844 13.74015625 49.36679688 14.5078125 48.58984375 C16.3431342 46.73099228 18.1736191 44.86762995 20 43 C16.09210704 38.33340307 12.05107406 33.86897742 7.75 29.5625 C7.22148438 29.02173828 6.69296875 28.48097656 6.1484375 27.92382812 C4.80509873 26.57537512 3.40658109 25.28234713 2 24 C-0.06832735 23.78805086 -0.06832735 23.78805086 -1.5078125 25.2421875 Z " fill="#98DCF3" transform="translate(63,21)"/>
<path d="M0 0 C4.09298458 1.38919067 5.60443796 2.91502553 8.4296875 6.1640625 C9.54656507 7.2971267 10.67216267 8.421638 11.8046875 9.5390625 C15.34635417 13.08072917 18.88802083 16.62239583 22.4296875 20.1640625 C23.20957031 20.94322021 23.98945312 21.72237793 24.79296875 22.52514648 C27.04141083 24.77546226 29.28553229 27.02996384 31.52709961 29.28712463 C33.61155845 31.38510849 35.69881267 33.48030281 37.78613281 35.57543945 C38.88273147 36.67708781 39.97843386 37.77962905 41.07324219 38.88305664 C42.66883624 40.49083992 44.26769186 42.09531804 45.8671875 43.69921875 C46.3506665 44.18785904 46.83414551 44.67649933 47.33227539 45.1799469 C49.52387858 47.37190685 51.7203241 49.39135589 54.1640625 51.30249023 C56.93339898 53.57794182 58.02230189 55.90485372 59.4296875 59.1640625 C57.1196875 61.1440625 54.8096875 63.1240625 52.4296875 65.1640625 C52.0996875 64.1740625 51.7696875 63.1840625 51.4296875 62.1640625 C48.7896875 64.8040625 46.1496875 67.4440625 43.4296875 70.1640625 C42.7696875 69.8340625 42.1096875 69.5040625 41.4296875 69.1640625 C46.3796875 64.2140625 46.3796875 64.2140625 51.4296875 59.1640625 C50.4396875 57.1840625 50.4396875 57.1840625 49.4296875 55.1640625 C48.7696875 55.1640625 48.1096875 55.1640625 47.4296875 55.1640625 C46.4296875 53.49739583 45.4296875 51.83072917 44.4296875 50.1640625 C42.79021402 48.47063926 41.11694204 46.80988378 39.4296875 45.1640625 C38.23024989 43.96766871 37.03244144 42.76964023 35.8359375 41.5703125 C35.19785156 40.93222656 34.55976562 40.29414062 33.90234375 39.63671875 C26.66601562 32.40039062 26.66601562 32.40039062 19.4296875 25.1640625 C18.22892578 23.96523438 18.22892578 23.96523438 17.00390625 22.7421875 C15.12626417 20.86169619 13.25430121 18.97635963 11.38671875 17.0859375 C10.33856442 16.02862327 9.29038712 14.97133183 8.2421875 13.9140625 C7.70916016 13.37265625 7.17613281 12.83125 6.62695312 12.2734375 C3.80461213 9.35649149 3.80461213 9.35649149 0.4296875 7.1640625 C0.4296875 6.5040625 0.4296875 5.8440625 0.4296875 5.1640625 C-5.23465901 9.99278866 -10.58920557 15.0471121 -15.83203125 20.328125 C-16.58571487 21.08322357 -17.3393985 21.83832214 -18.11592102 22.61630249 C-20.49893506 25.00486011 -22.87843465 27.39688321 -25.2578125 29.7890625 C-26.86500068 31.40127466 -28.47242057 33.01325588 -30.08007812 34.625 C-33.02706974 37.58011795 -35.97274261 40.53653606 -38.91674805 43.49462891 C-41.79714822 46.38857796 -44.68167549 49.27833124 -47.5703125 52.1640625 C-48.4984375 53.0921875 -49.4265625 54.0203125 -50.3828125 54.9765625 C-51.1046875 55.6984375 -51.8265625 56.4203125 -52.5703125 57.1640625 C-51.20660951 60.15626518 -49.62123167 62.45432779 -47.4453125 64.9140625 C-46.90648437 65.52765625 -46.36765625 66.14125 -45.8125 66.7734375 C-45.40257812 67.23234375 -44.99265625 67.69125 -44.5703125 68.1640625 C-45.5603125 68.6590625 -45.5603125 68.6590625 -46.5703125 69.1640625 C-46.5703125 68.5040625 -46.5703125 67.8440625 -46.5703125 67.1640625 C-50.0353125 67.6590625 -50.0353125 67.6590625 -53.5703125 68.1640625 C-53.8178125 67.6071875 -54.0653125 67.0503125 -54.3203125 66.4765625 C-55.78637265 63.76435123 -57.60020721 61.52818885 -59.5703125 59.1640625 C-58.27833316 55.41800867 -56.83629394 53.06011449 -54.02612305 50.27929688 C-53.30164474 49.55504517 -52.57716644 48.83079346 -51.83073425 48.08459473 C-50.65575127 46.93283752 -50.65575127 46.93283752 -49.45703125 45.7578125 C-48.24718315 44.55433167 -48.24718315 44.55433167 -47.01289368 43.32653809 C-44.43483095 40.76524404 -41.84654919 38.21456332 -39.2578125 35.6640625 C-37.52600474 33.94730831 -35.79487702 32.22986782 -34.06445312 30.51171875 C-30.88139564 27.35314204 -27.69451163 24.19854326 -24.50268555 21.04882812 C-18.47776245 15.15299324 -18.47776245 15.15299324 -12.703125 9.015625 C-11.70071073 7.93992718 -10.69810464 6.86440807 -9.6953125 5.7890625 C-9.20417969 5.23089844 -8.71304688 4.67273438 -8.20703125 4.09765625 C-5.44850645 1.19583146 -4.05096957 0.18614959 0 0 Z M54.4296875 58.1640625 C53.4396875 59.6490625 53.4396875 59.6490625 52.4296875 61.1640625 C53.7496875 60.8340625 55.0696875 60.5040625 56.4296875 60.1640625 C56.4296875 59.5040625 56.4296875 58.8440625 56.4296875 58.1640625 C55.7696875 58.1640625 55.1096875 58.1640625 54.4296875 58.1640625 Z " fill="#AEE0F1" transform="translate(64.5703125,4.8359375)"/>
<path d="M0 0 C5.71700538 4.75136274 10.97689423 9.84614587 16.21484375 15.1171875 C17.07058487 15.97434357 17.92632599 16.83149963 18.80799866 17.71463013 C21.52020465 20.43239954 24.2288983 23.15363891 26.9375 25.875 C28.78427369 27.72679342 30.63127653 29.57835834 32.47851562 31.4296875 C36.98833201 35.95048435 41.49527569 40.47412946 46 45 C45.505 45.99 45.505 45.99 45 47 C40.77080886 46.53008987 38.80091817 43.89733224 36 41 C34.73120734 39.72712926 33.4602061 38.4564578 32.1875 37.1875 C15 20 15 20 12.51953125 17.5 C10.81340068 15.80709525 9.08045662 14.14086458 7.32421875 12.5 C6.45410156 11.675 5.58398438 10.85 4.6875 10 C3.80449219 9.175 2.92148438 8.35 2.01171875 7.5 C0 5 0 5 -0.29296875 2.1875 C-0.19628906 1.465625 -0.09960938 0.74375 0 0 Z " fill="#AADFEF" transform="translate(69,10)"/>
<path d="M0 0 C6.03518337 4.98558626 11.50757503 10.42810265 17 16 C17.76038574 16.76038574 18.52077148 17.52077148 19.30419922 18.30419922 C21.57291444 20.57291444 23.83657679 22.8464993 26.09741211 25.12306213 C28.18187095 27.22104599 30.26912517 29.31624031 32.35644531 31.41137695 C33.45304397 32.51302531 34.54874636 33.61556655 35.64355469 34.71899414 C37.23914874 36.32677742 38.83800436 37.93125554 40.4375 39.53515625 C40.920979 40.02379654 41.40445801 40.51243683 41.90258789 41.0158844 C44.09419108 43.20784435 46.2906366 45.22729339 48.734375 47.13842773 C51.50371148 49.41387932 52.59261439 51.74079122 54 55 C51.69 56.98 49.38 58.96 47 61 C46.67 60.01 46.34 59.02 46 58 C43.36 60.64 40.72 63.28 38 66 C37.01 65.505 37.01 65.505 36 65 C39.3 61.7 42.6 58.4 46 55 C45.34 53.68 44.68 52.36 44 51 C43.34 51 42.68 51 42 51 C42 48 42 48 44 46 C43.44876465 45.45320587 42.8975293 44.90641174 42.32958984 44.3430481 C37.14452879 39.19800265 31.96425455 34.04820778 26.78933716 28.8929615 C24.12846667 26.24254396 21.46576124 23.5940252 18.79882812 20.94970703 C16.22686027 18.39941379 13.65975863 15.84431587 11.0960083 13.28576279 C10.11530568 12.30876562 9.13283981 11.33353521 8.14862061 10.36008072 C6.77416151 9.00006451 5.40643646 7.63325276 4.0390625 6.26611328 C3.25740723 5.48889923 2.47575195 4.71168518 1.67041016 3.91091919 C0 2 0 2 0 0 Z M49 54 C48.01 55.485 48.01 55.485 47 57 C48.32 56.67 49.64 56.34 51 56 C51 55.34 51 54.68 51 54 C50.34 54 49.68 54 49 54 Z " fill="#E6F2F6" transform="translate(70,9)"/>
<path d="M0 0 C3.2421875 0.9140625 3.2421875 0.9140625 5.2421875 1.9140625 C4.9121875 2.5740625 4.5821875 3.2340625 4.2421875 3.9140625 C3.5821875 3.5840625 2.9221875 3.2540625 2.2421875 2.9140625 C-1.62312427 2.42134954 -3.24516069 2.54630733 -6.45346069 4.84780884 C-7.36391144 5.75348602 -8.27436218 6.65916321 -9.21240234 7.59228516 C-9.72046417 8.08983307 -10.228526 8.58738098 -10.75198364 9.1000061 C-12.42295938 10.74462895 -14.07108983 12.41016794 -15.71875 14.078125 C-16.87515159 15.23048366 -18.03244251 16.3819505 -19.19058228 17.53256226 C-21.61268806 19.94582787 -24.02362404 22.36959764 -26.42724609 24.80126953 C-29.50737225 27.91558088 -32.61365413 31.00217676 -35.72881126 34.08139992 C-38.12290159 36.45379648 -40.50250116 38.84031473 -42.87797928 41.23133469 C-44.01784672 42.37520123 -45.1621788 43.51463676 -46.31101608 44.64949417 C-47.91552247 46.23873973 -49.49950225 47.8459955 -51.07958984 49.45947266 C-51.98526703 50.3699234 -52.89094421 51.28037415 -53.82406616 52.21841431 C-56.13777283 55.44372835 -56.32935259 57.02686276 -55.7578125 60.9140625 C-53.88012108 63.76326303 -53.88012108 63.76326303 -51.7578125 65.9140625 C-55.5530256 64.42308592 -57.36823981 62.15705401 -59.7578125 58.9140625 C-58.46583316 55.16800867 -57.02379394 52.81011449 -54.21362305 50.02929688 C-53.48914474 49.30504517 -52.76466644 48.58079346 -52.01823425 47.83459473 C-50.84325127 46.68283752 -50.84325127 46.68283752 -49.64453125 45.5078125 C-48.43468315 44.30433167 -48.43468315 44.30433167 -47.20039368 43.07653809 C-44.62233095 40.51524404 -42.03404919 37.96456332 -39.4453125 35.4140625 C-37.71350474 33.69730831 -35.98237702 31.97986782 -34.25195312 30.26171875 C-31.06889564 27.10314204 -27.88201163 23.94854326 -24.69018555 20.79882812 C-18.66526245 14.90299324 -18.66526245 14.90299324 -12.890625 8.765625 C-11.88821073 7.68992718 -10.88560464 6.61440807 -9.8828125 5.5390625 C-9.39167969 4.98089844 -8.90054688 4.42273438 -8.39453125 3.84765625 C-5.48766811 0.78978723 -4.29590717 -0.0982432 0 0 Z " fill="#E7F4F8" transform="translate(64.7578125,5.0859375)"/>
<path d="M0 0 C3.63905562 1.2888322 4.88792758 2.89439137 7 6.0625 C5.44499019 9.87934226 2.96404505 12.25445732 0 15.0625 C-3.81684226 13.50749019 -6.19195732 11.02654505 -9 8.0625 C-7.088373 3.602037 -5.18292644 0.10797763 0 0 Z " fill="#AEE3F4" transform="translate(65,55.9375)"/>
<path d="M0 0 C2.75262393 2.29385328 3.85784096 3.57352289 5 7 C2.69 8.98 0.38 10.96 -2 13 C-2.33 12.01 -2.66 11.02 -3 10 C-5.64 12.64 -8.28 15.28 -11 18 C-11.66 17.67 -12.32 17.34 -13 17 C-9.7 13.7 -6.4 10.4 -3 7 C-3.66 5.68 -4.32 4.36 -5 3 C-5.66 3 -6.32 3 -7 3 C-7 2.01 -7 1.02 -7 0 C-4.23382717 -1.38308641 -2.92591209 -0.90563946 0 0 Z M0 6 C-0.99 7.485 -0.99 7.485 -2 9 C-0.68 8.67 0.64 8.34 2 8 C2 7.34 2 6.68 2 6 C1.34 6 0.68 6 0 6 Z " fill="#C3E9F4" transform="translate(119,57)"/>
<path d="M0 0 C0.99 0.495 0.99 0.495 2 1 C2.185625 1.9590625 2.185625 1.9590625 2.375 2.9375 C2.684375 3.9584375 2.684375 3.9584375 3 5 C3.5775 5.28875 4.155 5.5775 4.75 5.875 C8.08201026 7.54100513 9.71412829 10.07916393 12 13 C11.01 13.495 11.01 13.495 10 14 C10 13.34 10 12.68 10 12 C7.69 12.33 5.38 12.66 3 13 C3.33 12.01 3.66 11.02 4 10 C3.34 9.46375 2.68 8.9275 2 8.375 C0 6 0 6 -0.25 2.75 C-0.1675 1.8425 -0.085 0.935 0 0 Z " fill="#A8DCED" transform="translate(8,60)"/>
<path d="M0 0 C0.99 0.99 1.98 1.98 3 3 C1.02 5.31 -0.96 7.62 -3 10 C-3.33 8.68 -3.66 7.36 -4 6 C-2.68 5.34 -1.36 4.68 0 4 C0 2.68 0 1.36 0 0 Z " fill="#D3EEF8" transform="translate(121,60)"/>
<path d="M0 0 C1.98 1.65 3.96 3.3 6 5 C5.34 5.66 4.68 6.32 4 7 C2 5.75 2 5.75 0 4 C0 2.68 0 1.36 0 0 Z " fill="#94D6EB" transform="translate(69,10)"/>
<path d="M0 0 C3 1 3 1 3 1 Z " fill="#FFFFFF" transform="translate(57,136)"/>
<path d="M0 0 C0.33 0.66 0.66 1.32 1 2 C0.34 1.67 -0.32 1.34 -1 1 C-0.67 0.67 -0.34 0.34 0 0 Z " fill="#FFFFFF" transform="translate(124,69)"/>
<path d="" fill="#FFFFFF" transform="translate(0,0)"/>
<path d="M0 0 C2 1 2 1 2 1 Z " fill="#FFFFFF" transform="translate(104,67)"/>
<path d="" fill="#FFFFFF" transform="translate(0,0)"/>
<path d="" fill="#FFFFFF" transform="translate(0,0)"/>
<path d="" fill="#FFFFFF" transform="translate(0,0)"/>
<path d="" fill="#FFFFFF" transform="translate(0,0)"/>
<path d="" fill="#FFFFFF" transform="translate(0,0)"/>
<path d="" fill="#FFFFFF" transform="translate(0,0)"/>
<path d="" fill="#FFFFFF" transform="translate(0,0)"/>
<path d="" fill="#FFFFFF" transform="translate(0,0)"/>
<path d="" fill="#FFFFFF" transform="translate(0,0)"/>
<path d="" fill="#FFFFFF" transform="translate(0,0)"/>
<path d="" fill="#FFFFFF" transform="translate(0,0)"/>
<path d="" fill="#FFFFFF" transform="translate(0,0)"/>
<path d="" fill="#FFFFFF" transform="translate(0,0)"/>
<path d="" fill="#FFFFFF" transform="translate(0,0)"/>
<path d="" fill="#FFFFFF" transform="translate(0,0)"/>
<path d="" fill="#FFFFFF" transform="translate(0,0)"/>
<path d="" fill="#FFFFFF" transform="translate(0,0)"/>
<path d="" fill="#FFFFFF" transform="translate(0,0)"/>
<path d="" fill="#FFFFFF" transform="translate(0,0)"/>
<path d="" fill="#FFFFFF" transform="translate(0,0)"/>
<path d="" fill="#FFFFFF" transform="translate(0,0)"/>
<path d="" fill="#FFFFFF" transform="translate(0,0)"/>
<path d="" fill="#FFFFFF" transform="translate(0,0)"/>
<path d="" fill="#FFFFFF" transform="translate(0,0)"/>
<path d="" fill="#FFFFFF" transform="translate(0,0)"/>
<path d="" fill="#FFFFFF" transform="translate(0,0)"/>
<path d="" fill="#FFFFFF" transform="translate(0,0)"/>
<path d="" fill="#FFFFFF" transform="translate(0,0)"/>
<path d="" fill="#FFFFFF" transform="translate(0,0)"/>
<path d="" fill="#FFFFFF" transform="translate(0,0)"/>
<path d="" fill="#FFFFFF" transform="translate(0,0)"/>
<path d="" fill="#FFFFFF" transform="translate(0,0)"/>
<path d="" fill="#FFFFFF" transform="translate(0,0)"/>
<path d="" fill="#FFFFFF" transform="translate(0,0)"/>
<path d="" fill="#FFFFFF" transform="translate(0,0)"/>
<path d="" fill="#FFFFFF" transform="translate(0,0)"/>
<path d="" fill="#FFFFFF" transform="translate(0,0)"/>
<path d="" fill="#FFFFFF" transform="translate(0,0)"/>
<path d="" fill="#FFFFFF" transform="translate(0,0)"/>
<path d="" fill="#FFFFFF" transform="translate(0,0)"/>
<path d="" fill="#FFFFFF" transform="translate(0,0)"/>
<path d="" fill="#FFFFFF" transform="translate(0,0)"/>
<path d="" fill="#FFFFFF" transform="translate(0,0)"/>
<path d="" fill="#FFFFFF" transform="translate(0,0)"/>
<path d="" fill="#FFFFFF" transform="translate(0,0)"/>
<path d="" fill="#FFFFFF" transform="translate(0,0)"/>
<path d="" fill="#FFFFFF" transform="translate(0,0)"/>
<path d="" fill="#FFFFFF" transform="translate(0,0)"/>
<path d="" fill="#FFFFFF" transform="translate(0,0)"/>
<path d="" fill="#FFFFFF" transform="translate(0,0)"/>
<path d="" fill="#FFFFFF" transform="translate(0,0)"/>
<path d="" fill="#FFFFFF" transform="translate(0,0)"/>
<path d="" fill="#FFFFFF" transform="translate(0,0)"/>
<path d="" fill="#FFFFFF" transform="translate(0,0)"/>
<path d="" fill="#FFFFFF" transform="translate(0,0)"/>
<path d="" fill="#FFFFFF" transform="translate(0,0)"/>
<path d="" fill="#FFFFFF" transform="translate(0,0)"/>
<path d="" fill="#FFFFFF" transform="translate(0,0)"/>
<path d="" fill="#FFFFFF" transform="translate(0,0)"/>
<path d="" fill="#FFFFFF" transform="translate(0,0)"/>
<path d="" fill="#FFFFFF" transform="translate(0,0)"/>
<path d="" fill="#FFFFFF" transform="translate(0,0)"/>
<path d="" fill="#FFFFFF" transform="translate(0,0)"/>
<path d="" fill="#FFFFFF" transform="translate(0,0)"/>
<path d="" fill="#FFFFFF" transform="translate(0,0)"/>
<path d="" fill="#FFFFFF" transform="translate(0,0)"/>
<path d="" fill="#FFFFFF" transform="translate(0,0)"/>
<path d="" fill="#FFFFFF" transform="translate(0,0)"/>
<path d="" fill="#FFFFFF" transform="translate(0,0)"/>
<path d="" fill="#FFFFFF" transform="translate(0,0)"/>
<path d="" fill="#FFFFFF" transform="translate(0,0)"/>
<path d="" fill="#FFFFFF" transform="translate(0,0)"/>
<path d="" fill="#FFFFFF" transform="translate(0,0)"/>
<path d="" fill="#FFFFFF" transform="translate(0,0)"/>
<path d="" fill="#FFFFFF" transform="translate(0,0)"/>
<path d="" fill="#FFFFFF" transform="translate(0,0)"/>
<path d="" fill="#FFFFFF" transform="translate(0,0)"/>
<path d="" fill="#FFFFFF" transform="translate(0,0)"/>
<path d="" fill="#FFFFFF" transform="translate(0,0)"/>
<path d="" fill="#FFFFFF" transform="translate(0,0)"/>
<path d="" fill="#FFFFFF" transform="translate(0,0)"/>
<path d="" fill="#FFFFFF" transform="translate(0,0)"/>
<path d="" fill="#FFFFFF" transform="translate(0,0)"/>
<path d="" fill="#FFFFFF" transform="translate(0,0)"/>
<path d="" fill="#FFFFFF" transform="translate(0,0)"/>
<path d="" fill="#FFFFFF" transform="translate(0,0)"/>
<path d="" fill="#FFFFFF" transform="translate(0,0)"/>
<path d="" fill="#FFFFFF" transform="translate(0,0)"/>
<path d="" fill="#FFFFFF" transform="translate(0,0)"/>
<path d="" fill="#FFFFFF" transform="translate(0,0)"/>
<path d="" fill="#FFFFFF" transform="translate(0,0)"/>
<path d="" fill="#FFFFFF" transform="translate(0,0)"/>
<path d="" fill="#FFFFFF" transform="translate(0,0)"/>
<path d="" fill="#FFFFFF" transform="translate(0,0)"/>
<path d="" fill="#FFFFFF" transform="translate(0,0)"/>
<path d="" fill="#FFFFFF" transform="translate(0,0)"/>
<path d="" fill="#FFFFFF" transform="translate(0,0)"/>
<path d="" fill="#FFFFFF" transform="translate(0,0)"/>
<path d="" fill="#FFFFFF" transform="translate(0,0)"/>
<path d="" fill="#FFFFFF" transform="translate(0,0)"/>
<path d="" fill="#FFFFFF" transform="translate(0,0)"/>
<path d="" fill="#FFFFFF" transform="translate(0,0)"/>
<path d="" fill="#FFFFFF" transform="translate(0,0)"/>
<path d="" fill="#FFFFFF" transform="translate(0,0)"/>
<path d="" fill="#FFFFFF" transform="translate(0,0)"/>
<path d="" fill="#FFFFFF" transform="translate(0,0)"/>
<path d="" fill="#FFFFFF" transform="translate(0,0)"/>
<path d="" fill="#FFFFFF" transform="translate(0,0)"/>
<path d="" fill="#FFFFFF" transform="translate(0,0)"/>
<path d="" fill="#FFFFFF" transform="translate(0,0)"/>
<path d="" fill="#FFFFFF" transform="translate(0,0)"/>
<path d="" fill="#FFFFFF" transform="translate(0,0)"/>
<path d="" fill="#FFFFFF" transform="translate(0,0)"/>
<path d="" fill="#FFFFFF" transform="translate(0,0)"/>
<path d="" fill="#FFFFFF" transform="translate(0,0)"/>
<path d="" fill="#FFFFFF" transform="translate(0,0)"/>
<path d="" fill="#FFFFFF" transform="translate(0,0)"/>
<path d="" fill="#FFFFFF" transform="translate(0,0)"/>
<path d="" fill="#FFFFFF" transform="translate(0,0)"/>
<path d="" fill="#FFFFFF" transform="translate(0,0)"/>
<path d="" fill="#FFFFFF" transform="translate(0,0)"/>
<path d="" fill="#FFFFFF" transform="translate(0,0)"/>
<path d="" fill="#FFFFFF" transform="translate(0,0)"/>
<path d="" fill="#FFFFFF" transform="translate(0,0)"/>
<path d="" fill="#FFFFFF" transform="translate(0,0)"/>
<path d="" fill="#FFFFFF" transform="translate(0,0)"/>
<path d="" fill="#FFFFFF" transform="translate(0,0)"/>
<path d="" fill="#FFFFFF" transform="translate(0,0)"/>
<path d="" fill="#FFFFFF" transform="translate(0,0)"/>
<path d="" fill="#FFFFFF" transform="translate(0,0)"/>
<path d="" fill="#FFFFFF" transform="translate(0,0)"/>
</svg>
